<?xml version="1.0" encoding="UTF-8" standalone="no"?>
<svg
   xmlns:dc="http://purl.org/dc/elements/1.1/"
   xmlns:cc="http://creativecommons.org/ns#"
   xmlns:rdf="http://www.w3.org/1999/02/22-rdf-syntax-ns#"
   xmlns:svg="http://www.w3.org/2000/svg"
   xmlns="http://www.w3.org/2000/svg"
   xmlns:sodipodi="http://sodipodi.sourceforge.net/DTD/sodipodi-0.dtd"
   xmlns:inkscape="http://www.inkscape.org/namespaces/inkscape"
   version="1.1"
   width="1417.3228"
   height="1417.3228"
   id="svg37"
   viewBox="0 0 1417.3228 1417.3228"
   sodipodi:docname="bro burger logo.cdr.cdr">
  <metadata
     id="metadata43">
    <rdf:RDF>
      <cc:Work
         rdf:about="">
        <dc:format>image/svg+xml</dc:format>
        <dc:type
           rdf:resource="http://purl.org/dc/dcmitype/StillImage" />
      </cc:Work>
    </rdf:RDF>
  </metadata>
  <defs
     id="defs41" />
  <sodipodi:namedview
     pagecolor="#ffffff"
     bordercolor="#666666"
     borderopacity="1"
     objecttolerance="10"
     gridtolerance="10"
     guidetolerance="10"
     inkscape:pageopacity="0"
     inkscape:pageshadow="2"
     inkscape:window-width="640"
     inkscape:window-height="480"
     id="namedview39" />
  <g
     id="Layer1000">
    <path
       d="m 1276.758,501.4352 c 14.4208,0.874 28.2895,4.1872 41.1917,9.5343 15.7981,6.5472 29.9598,16.0671 41.743,27.8207 11.7796,11.75 21.3334,25.8796 27.9219,41.6505 6.3478,15.1948 9.8669,31.7411 9.8886,48.9605 l 0.1973,156.9051 c 0.022,17.2195 -3.4558,33.7746 -9.7654,48.9853 -6.5488,15.7873 -16.0671,29.9409 -27.8171,41.7205 -11.7535,11.7832 -25.8909,21.3386 -41.6727,27.9257 -12.8887,5.3796 -26.7492,8.7276 -41.1677,9.6378 -14.7322,40.6746 -33.6776,79.2925 -56.3072,115.3208 -24.2582,38.6212 -52.5415,74.1279 -84.2126,105.8788 -55.5496,55.6895 -122.119,100.6634 -196.2878,131.4945 -71.3235,29.6485 -149.3783,46.0593 -231.0821,46.162 -81.7039,0.1028 -159.7997,-16.1116 -231.1976,-45.5806 -74.2461,-30.6445 -140.9284,-75.4508 -196.6179,-131.0004 -31.7508,-31.6712 -60.1235,-67.1067 -84.4787,-105.6668 C 174.3736,995.2126 155.3313,956.6426 140.4968,916.0053 126.076,915.1314 112.2073,911.8181 99.305,906.471 83.5068,899.9236 69.3452,890.4038 57.562,878.6502 45.7824,866.9002 36.2286,852.7706 29.6401,836.9998 23.2923,821.805 19.7732,805.2587 19.7515,788.0393 L 19.5542,631.1342 c -0.0217,-17.2195 3.4558,-33.7746 9.7654,-48.9853 6.5488,-15.7874 16.0671,-29.941 27.8171,-41.7206 11.7537,-11.7831 25.8912,-21.3386 41.6729,-27.9256 12.8887,-5.3795 26.7491,-8.7276 41.1677,-9.6378 14.7321,-40.6746 33.6773,-79.2922 56.307,-115.3206 24.2581,-38.6212 52.5416,-74.128 84.2126,-105.879 55.5497,-55.6895 122.1191,-100.6634 196.2879,-131.4946 71.3233,-29.6484 149.3782,-46.0593 231.0821,-46.162 81.7038,-0.1028 159.7998,16.1117 231.1974,45.5806 74.2461,30.6446 140.9284,75.4509 196.618,131.0005 31.7507,31.671 60.1234,67.1067 84.4786,105.6667 22.7202,35.9714 41.7626,74.5414 56.5971,115.1787 z"
       style="fill:#1d1d1d;fill-rule:evenodd"
       id="path2" />
    <path
       d="m 855.0437,501.534 -8.6453,-26.6605 -28.0233,0.0904 22.6827,-16.4568 -8.7445,-26.6273 22.6636,16.4879 22.622,-16.5449 -8.6794,26.6492 22.7241,16.3997 -28.0234,-0.0199 z"
       style="fill:#f1c934;fill-rule:evenodd"
       id="path4" />
    <path
       d="m 561.6904,501.9029 -8.6436,-26.6605 -28.0233,0.0904 22.6828,-16.4568 -8.7464,-26.6273 22.6636,16.4879 22.622,-16.5449 -8.6775,26.6492 22.7241,16.3997 -28.0235,-0.0198 z"
       style="fill:#f1c934;fill-rule:evenodd"
       id="path6" />
    <path
       d="m 708.3542,491.4882 -13.9842,-43.1353 -45.3443,0.1434 36.7028,-26.6275 -14.1495,-43.08 36.667,26.6748 36.5997,-26.767 -14.041,43.1155 36.7696,26.5351 -45.3445,-0.0293 z"
       style="fill:#f1c934;fill-rule:evenodd"
       id="path8" />
    <path
       d="m 855.5644,915.5375 -8.5783,26.6822 -28.0234,-0.0199 22.7241,16.3997 -8.6776,26.6493 22.6221,-16.5449 22.6635,16.4879 -8.7463,-26.6273 22.6827,-16.4568 -28.0233,0.0904 z"
       style="fill:#f1c934;fill-rule:evenodd"
       id="path10" />
    <path
       d="m 562.211,915.9065 -8.5764,26.6821 -28.0235,-0.0198 22.7241,16.3997 -8.6794,26.6492 22.6221,-16.5449 22.6635,16.4879 -8.7445,-26.6273 22.6828,-16.4568 -28.0233,0.0904 z"
       style="fill:#f1c934;fill-rule:evenodd"
       id="path12" />
    <path
       d="m 708.9006,925.9522 -13.8757,43.1704 -45.3445,-0.0293 36.7697,26.5351 -14.0411,43.1155 36.5998,-26.767 36.6669,26.6748 -14.1495,-43.08 36.7028,-26.6275 -45.3442,0.1434 z"
       style="fill:#f1c934;fill-rule:evenodd"
       id="path14" />
    <path
       d="m 708.1344,316.689 c 108.2559,-0.1362 206.3221,43.6227 277.3524,114.4746 25.8753,25.8103 48.162,55.222 66.049,87.4131 l -10.5407,0.0133 C 1023.9655,488.8851 1003.074,461.6815 978.9994,437.6674 909.6318,368.4741 813.865,325.741 708.1459,325.874 c -105.7191,0.1329 -201.3781,43.1067 -270.5714,112.4743 -24.0142,24.0746 -44.8372,51.3306 -61.792,81.0783 l -10.5407,0.0132 c 17.8059,-32.236 40.0186,-61.7036 65.8289,-87.579 70.8519,-71.0303 168.8077,-115.0357 277.0637,-115.1718 z"
       style="fill:#ffffff;fill-rule:evenodd"
       id="path16" />
    <path
       d="m 707.9073,136.1234 c 158.1138,-0.1988 301.3477,63.7121 405.0974,167.2011 60.1195,59.9685 106.978,133.2297 135.8004,215.0041 l -15.7706,0.0199 C 1204.8308,440.6716 1159.8727,371.0416 1102.5213,313.8343 1001.4626,213.0294 861.9433,150.7763 707.9259,150.97 553.9086,151.1637 414.5464,213.7675 313.7414,314.8263 256.5341,372.1777 211.7513,441.9205 183.743,519.6681 l -15.7706,0.0198 C 196.5891,437.8412 243.2631,364.4624 303.2316,304.3429 406.7207,200.5932 549.7934,136.3223 707.9073,136.1234 Z"
       style="fill:#f4d431;fill-rule:evenodd"
       id="path18" />
    <path
       d="m 707.9592,177.4356 c 146.7061,-0.1845 279.6048,59.1175 375.8685,155.1394 52.4074,52.2757 93.9533,115.4363 120.9667,185.809 l -14.7768,0.0186 C 1163.6759,451.828 1123.9252,392.0268 1074.1002,342.327 980.3343,248.7966 850.8819,191.0333 707.9766,191.2131 565.0712,191.3928 435.7645,249.4814 342.2341,343.2474 292.5343,393.0723 252.9342,452.9733 226.76,519.614 l -14.7768,0.0186 C 238.8195,449.1922 280.2064,385.9272 332.4821,333.5199 428.504,237.2562 561.2531,177.6201 707.9592,177.4356 Z"
       style="fill:#ffffff;fill-rule:evenodd"
       id="path20" />
    <path
       d="m 1052.013,898.0006 c -17.806,32.2362 -40.0185,61.7036 -65.829,87.5791 -70.8519,71.0302 -168.8075,115.0357 -277.0636,115.1718 -108.2558,0.1362 -206.3221,-43.6227 -277.3525,-114.4746 -25.8754,-25.8104 -48.162,-55.2222 -66.049,-87.4131 l 10.5409,-0.0132 c 17.0294,29.7047 37.921,56.9084 61.9957,80.9225 69.3675,69.1933 165.1342,111.9264 270.8534,111.7934 105.7187,-0.1328 201.3781,-43.1067 270.5712,-112.4744 24.0142,-24.0745 44.8373,-51.3306 61.7921,-81.0781 z m 153.2587,-0.1927 c -26.8364,70.4403 -68.2233,133.7054 -120.499,186.1128 -96.0219,96.2637 -228.771,155.8997 -375.4773,156.0842 -146.7061,0.1846 -279.6046,-59.1176 -375.8683,-155.1393 C 281.0197,1032.5899 239.4736,969.429 212.4603,899.0564 l 14.7769,-0.0185 c 26.3418,66.5747 66.0925,126.3757 115.9173,176.0755 93.7658,93.5305 223.2185,151.2936 366.1237,151.114 142.9053,-0.1797 272.212,-58.2683 365.7424,-152.0343 49.6997,-49.8249 89.3001,-109.7261 115.4743,-176.3665 z m -86.4292,33.5054 -5.3083,9.2192 c -0.3281,0.5717 -0.4377,1.0678 -0.349,1.4957 0.096,0.4408 0.4109,0.9326 0.9737,1.4941 l -0.5059,0.8788 -8.7339,-5.0279 0.5059,-0.8788 c 0.781,0.1993 1.378,0.2445 1.7893,0.0951 0.415,-0.1364 0.7783,-0.4859 1.1064,-1.0576 l 10.2172,-17.7473 0.8786,0.5078 c -0.1882,0.7626 -0.2187,1.3559 -0.084,1.7948 0.1384,0.4279 0.4933,0.8077 1.0633,1.1359 l 7.6769,4.4193 c 0.5698,0.3281 1.0788,0.4449 1.5123,0.3599 0.4352,-0.0868 0.94,-0.4199 1.5142,-0.9846 l 0.6839,0.3922 c -0.041,9.4477 -1.9766,17.5053 -5.8132,24.1711 -3.4863,6.0555 -7.7595,10.1629 -12.8306,12.3277 -6.3875,2.7176 -12.7992,2.2279 -19.2297,-1.4729 -5.9911,-3.4497 -9.5353,-8.3298 -10.6215,-14.6514 -1.0198,-5.9965 0.3978,-12.358 4.2727,-19.0882 1.2281,-2.1341 2.5851,-4.0335 4.0709,-5.7071 1.4822,-1.6643 3.385,-3.4357 5.6972,-5.3068 1.2131,-0.9586 1.9691,-1.7091 2.2697,-2.233 0.2218,-0.3843 0.2724,-0.952 0.1484,-1.7086 l 0.8536,-0.532 6.4451,9.5443 -0.8701,0.5594 c -0.6102,-0.326 -1.0973,-0.4964 -1.4462,-0.4978 -0.3435,-0.0105 -0.8633,0.1389 -1.5389,0.4246 -1.4854,0.6283 -3.1371,1.8556 -4.9773,3.6637 -1.833,1.8228 -3.3076,3.6928 -4.4129,5.6102 -2.2472,3.9045 -3.0212,7.7817 -2.3146,11.6164 0.8155,4.3435 3.2556,7.6819 7.3385,10.0317 3.9396,2.2693 7.9448,2.6922 12.0137,1.2561 3.7183,-1.3088 6.7991,-4.0848 9.2407,-8.3257 1.1859,-2.0573 2.1275,-4.2334 2.8079,-6.5213 0.6749,-2.2768 1.0306,-4.3917 1.0484,-6.3242 z m -73.1502,79.542 19.8373,17.2006 c 0.4984,0.4329 0.9726,0.6436 1.4153,0.6413 0.452,-0.01 1.0027,-0.2291 1.6617,-0.6616 l 0.7669,0.6659 -8.3207,9.5959 -0.7668,-0.666 c 0.339,-0.7187 0.4742,-1.2864 0.4186,-1.7364 -0.061,-0.4389 -0.3373,-0.8777 -0.8358,-1.3105 l -27.631,-23.9584 c -0.4818,-0.4163 -0.9469,-0.6215 -1.3913,-0.621 -0.4519,0.01 -0.9954,0.2254 -1.6598,0.6634 l -0.7669,-0.6658 9.6229,-11.0984 0.7669,0.666 c -0.4234,0.8344 -0.3526,1.4957 0.21,1.9836 0.3845,0.3319 0.9908,0.4726 1.8449,0.4275 l 34.3276,-1.7699 -19.3647,-16.7898 c -0.4818,-0.4181 -0.9469,-0.6215 -1.3914,-0.6208 -0.45,0.008 -0.9954,0.2234 -1.658,0.6615 l -0.7686,-0.6658 8.3205,-9.596 0.7687,0.6658 c -0.3335,0.7113 -0.476,1.2883 -0.4221,1.7365 0.063,0.4409 0.3317,0.8722 0.8117,1.2885 l 27.6309,23.9584 c 0.4985,0.4329 0.9727,0.6436 1.4154,0.6411 0.4538,-0.01 1.0046,-0.2309 1.6617,-0.6596 l 0.7669,0.6639 -8.915,10.2818 -0.7686,-0.6658 c 0.4343,-0.7959 0.3821,-1.4259 -0.1568,-1.8938 -0.3181,-0.2769 -1.2128,-0.3659 -2.6916,-0.2758 z m -21.446,57.7272 -24.0277,-27.5688 c -0.4195,-0.4809 -0.8515,-0.7485 -1.2924,-0.8085 -0.4483,-0.055 -1.0157,0.082 -1.7355,0.4246 l -0.6678,-0.767 10.1695,-8.8617 0.6679,0.7652 c -0.4419,0.6417 -0.6727,1.1859 -0.6648,1.6542 0.01,0.4519 0.2124,0.9163 0.6318,1.3972 l 24.0259,27.5707 c 0.4341,0.4972 0.8735,0.7723 1.3366,0.8249 0.4611,0.071 1.023,-0.073 1.7134,-0.4172 l 0.6677,0.7669 -10.1695,8.8617 -0.6677,-0.7652 c 0.4364,-0.6656 0.6487,-1.2096 0.6574,-1.6615 -6e-4,-0.4446 -0.2124,-0.9183 -0.6448,-1.4155 z m -59.0769,5.0783 19.2813,26.4689 c 0.3883,0.5341 0.8038,0.844 1.2375,0.9426 0.4409,0.095 1.0268,6e-4 1.765,-0.2703 l 0.5981,0.8203 -10.9037,7.944 -0.5981,-0.8203 c 0.4935,-0.6271 0.7536,-1.1491 0.8008,-1.601 0.0381,-0.441 -0.1315,-0.9313 -0.5199,-1.4636 l -19.2814,-26.4707 -10.8429,7.8999 c -0.5158,0.3754 -0.8238,0.7744 -0.9225,1.2081 -0.106,0.4244 -0.0134,1.0122 0.2575,1.7485 l -0.8203,0.5981 -6.5769,-9.0262 0.8222,-0.598 c 0.64,0.4952 1.1858,0.7664 1.6268,0.8062 0.4354,0.043 0.9073,-0.1131 1.4231,-0.4886 l 29.2788,-21.3294 c 0.5341,-0.3883 0.8459,-0.8021 0.9463,-1.2375 0.0968,-0.4318 -0.001,-1.027 -0.2852,-1.7815 l 0.8205,-0.5981 6.5748,9.026 -0.8203,0.5982 c -0.6197,-0.4842 -1.1491,-0.7536 -1.5845,-0.7844 -0.4428,-0.038 -0.9274,0.1409 -1.4615,0.5291 z m -46.578,50.5135 -13.2468,-10.513 0.666,16.9437 z m 5.1065,4.0368 -17.4844,8.9369 0.1813,6.736 c 0.0158,0.9388 0.1434,1.611 0.3662,2.0442 0.4218,0.8279 1.3425,1.0858 2.7731,0.7533 l 0.4621,0.9052 -12.7332,6.5079 -0.4622,-0.9051 c 0.6716,-0.5371 1.1173,-1.0907 1.3187,-1.6677 0.2031,-0.5772 0.281,-1.5381 0.2205,-2.89 l -0.9519,-36.7754 c -0.0309,-1.172 -0.1936,-2.0371 -0.4846,-2.6043 -0.442,-0.8647 -1.2948,-1.2053 -2.5823,-1.02 l -0.4622,-0.9032 13.6384,-6.9702 0.4621,0.9032 c -0.945,0.883 -1.2175,1.7265 -0.8143,2.5141 0.2762,0.5379 0.7784,1.07 1.4863,1.5798 l 29.8056,22.1497 c 1.2614,0.9445 2.2467,1.5219 2.9543,1.7434 0.7075,0.2195 1.4845,0.1982 2.3512,-0.051 l 0.4622,0.905 -14.1376,7.2244 -0.4623,-0.9033 c 1.138,-0.8373 1.4529,-1.7377 0.9611,-2.6997 -0.2008,-0.3947 -0.6789,-0.8772 -1.4567,-1.4495 z m -91.4119,26.9443 3.2769,11.3743 26.6929,-7.6902 c 0.6133,-0.1771 1.0373,-0.4551 1.2793,-0.8301 0.2384,-0.3806 0.3516,-0.9649 0.3487,-1.7511 l 0.9751,-0.2804 3.096,10.7407 -0.977,0.2804 c -0.4179,-0.6755 -0.8206,-1.0993 -1.2269,-1.2972 -0.4044,-0.1887 -0.9113,-0.1991 -1.5229,-0.022 l -37.7053,10.8618 -0.2805,-0.9751 c 0.6755,-0.4197 1.0994,-0.8225 1.2972,-1.2288 0.1886,-0.4025 0.1954,-0.9206 0.0127,-1.5541 l -10.1145,-35.1088 c -0.1826,-0.6355 -0.4662,-1.0686 -0.8394,-1.3125 -0.3842,-0.2364 -0.9557,-0.3532 -1.751,-0.3468 l -0.2824,-0.9769 36.9783,-10.6533 c 0.6114,-0.1753 1.0373,-0.4551 1.2756,-0.8392 0.2346,-0.3954 0.3478,-0.9778 0.3468,-1.764 l 0.9751,-0.2805 3.0923,10.7316 -0.977,0.2803 c -0.4141,-0.657 -0.8133,-1.0698 -1.2194,-1.2659 -0.4007,-0.1887 -0.9115,-0.199 -1.5229,-0.024 l -25.9676,7.4817 2.8376,9.8501 16.8448,-4.8524 c 0.6115,-0.1771 1.0373,-0.4569 1.2793,-0.8302 0.2366,-0.3841 0.3496,-0.9667 0.3486,-1.7529 l 0.9751,-0.2805 3.0259,10.5039 -0.9751,0.2805 c -0.4141,-0.6572 -0.817,-1.0811 -1.2231,-1.279 -0.4063,-0.207 -0.917,-0.2192 -1.5303,-0.042 z m -85.41,12.6467 c -2.3455,0.2088 -4.3302,1.0692 -5.9302,2.5867 -1.5779,1.5175 -2.2756,3.3039 -2.093,5.3703 0.1919,2.162 1.1898,3.8636 2.9806,5.1012 1.7889,1.2415 3.9921,1.7402 6.5948,1.5091 2.691,-0.2385 4.9218,-1.1102 6.6852,-2.6224 1.7764,-1.492 2.5826,-3.1555 2.4204,-4.9868 -0.0764,-0.8596 -0.4504,-1.7795 -1.124,-2.7724 -0.6606,-0.9821 -1.47,-1.7874 -2.4132,-2.3999 -2.0775,-1.4081 -4.4516,-2.0003 -7.1206,-1.7858 z m 0.8153,-16.3576 c -1.6036,0.1416 -2.9696,0.6541 -4.0927,1.5335 -1.4516,1.1261 -2.0891,2.6149 -1.9251,4.4553 0.1379,1.5596 0.865,2.7856 2.1815,3.697 1.3275,0.9132 2.9224,1.2804 4.7941,1.1146 1.6146,-0.1435 2.9879,-0.6541 4.1148,-1.5354 1.448,-1.1463 2.0891,-2.6038 1.9325,-4.3671 -0.1434,-1.6146 -0.8632,-2.8721 -2.1467,-3.7778 -1.2833,-0.8949 -2.9096,-1.2713 -4.8584,-1.1201 z m 27.3743,5.3443 1.0602,11.9429 -1.0119,0.089 c -0.2107,-1.0321 -0.5807,-1.5313 -1.0839,-1.4866 -0.463,0.041 -1.1256,0.4019 -1.9973,1.0973 -0.8698,0.6974 -1.6165,1.4569 -2.2475,2.2937 -1.1151,1.4765 -1.8441,3.037 -2.1874,4.6704 1.4214,1.2107 2.6331,2.0561 3.6404,2.5196 1.0055,0.4744 2.0086,0.6661 3.0207,0.5766 0.9257,-0.082 1.4505,-0.6374 1.5667,-1.6681 l 1.0102,-0.089 0.8814,9.9296 c -0.6026,-0.074 -2.4671,-0.063 -5.5917,0.022 -1.2033,0.018 -2.7377,-0.408 -4.6034,-1.2746 -1.8656,-0.8738 -3.5111,-1.9317 -4.9124,-3.1847 -3.8905,4.5423 -8.7737,7.0688 -14.6369,7.5888 -4.5828,0.4061 -8.4781,-0.3532 -11.6952,-2.2706 -3.6493,-2.1465 -5.648,-5.2449 -6.0059,-9.2804 -0.4788,-5.3983 2.3371,-9.9428 8.4496,-13.641 -3.0596,-2.2226 -4.7198,-4.8071 -4.9825,-7.7551 -0.3038,-3.422 1.0906,-6.2876 4.1923,-8.5914 2.5253,-1.8623 5.5091,-2.9406 8.9623,-3.2463 3.8627,-0.3428 7.3373,0.3251 10.4016,1.9948 3.0093,1.6403 4.6621,4.1384 4.9602,7.5071 0.1659,1.8717 -0.1132,3.4904 -0.826,4.8654 -0.7129,1.3768 -2.0722,2.9161 -4.0797,4.6123 2.3087,1.215 4.1757,3.0681 5.6098,5.5425 1.7019,-3.6651 3.451,-6.4429 5.225,-8.3263 1.785,-1.8815 4.0702,-3.3632 6.8813,-4.4377 z m -101.8427,17.8863 -10.5607,-1.2835 c -0.6541,-0.08 -1.1554,0.014 -1.5115,0.2627 -0.3688,0.2594 -0.699,0.7411 -0.9975,1.4801 l -1.005,-0.1238 1.2146,-10.0039 1.0068,0.1237 c 0.1223,0.797 0.314,1.3645 0.612,1.6836 0.287,0.3285 0.752,0.5264 1.4061,0.6064 l 20.3276,2.469 -0.1217,1.0087 c -0.7769,0.1241 -1.3333,0.3287 -1.6857,0.6231 -0.3394,0.2944 -0.5519,0.7703 -0.6301,1.4225 l -1.069,8.7934 c -0.0801,0.6539 0.0124,1.1663 0.259,1.5335 0.2503,0.3671 0.754,0.7007 1.4985,1.0084 l -0.0946,0.7827 c -8.712,3.6538 -16.8848,5.0215 -24.5206,4.0925 -6.9376,-0.8419 -12.3872,-3.1698 -16.3618,-6.9931 -4.9952,-4.8159 -7.0512,-10.9103 -6.1566,-18.2759 0.8344,-6.8623 3.9417,-12.0319 9.3363,-15.5014 5.1211,-3.2817 11.5325,-4.4636 19.2399,-3.5273 2.4436,0.2981 4.724,0.8042 6.8447,1.518 2.1116,0.7137 4.4845,1.7743 7.1113,3.1708 1.3567,0.7423 2.3418,1.1453 2.9408,1.218 0.441,0.053 0.9827,-0.1206 1.6305,-0.5312 l 0.8237,0.5777 -6.2666,9.6631 -0.855,-0.5831 c 0.0617,-0.6889 0.0279,-1.2032 -0.1067,-1.5264 -0.1252,-0.3195 -0.4656,-0.7397 -0.9915,-1.2497 -1.1588,-1.1229 -2.9346,-2.164 -5.3185,-3.1511 -2.3948,-0.9762 -4.6901,-1.6015 -6.8874,-1.8688 -4.4719,-0.5437 -8.3452,0.2585 -11.5977,2.4082 -3.6801,2.446 -5.7991,5.9977 -6.3682,10.6736 -0.5473,4.5124 0.6277,8.3668 3.5379,11.5484 2.6599,2.912 6.4169,4.6653 11.2747,5.2543 2.359,0.2874 4.7288,0.3028 7.1,0.037 2.3602,-0.2693 4.4465,-0.7679 6.2329,-1.5068 z m -104.1369,-34.5037 -6.7631,25.3701 c -0.17,0.6377 -0.1529,1.1556 0.0442,1.554 0.2045,0.4021 0.6457,0.8002 1.3204,1.2016 l -0.2614,0.9813 -12.2716,-3.271 0.2615,-0.9812 c 0.7955,-0.01 1.3666,-0.1377 1.7446,-0.3844 0.3689,-0.2484 0.6421,-0.6897 0.8122,-1.3255 l 9.4215,-35.3373 c 0.1629,-0.6155 0.1419,-1.1226 -0.0533,-1.5228 -0.2062,-0.4021 -0.6366,-0.7964 -1.3223,-1.2015 l 0.2614,-0.9813 14.1938,3.7847 -0.2615,0.9813 c -0.9349,-0.015 -1.5003,0.338 -1.6905,1.0566 -0.1317,0.4925 0.009,1.0966 0.4231,1.8474 l 16.6405,30.0765 6.6023,-24.7655 c 0.1627,-0.6156 0.1436,-1.1227 -0.0533,-1.5228 -0.2045,-0.4003 -0.6366,-0.7947 -1.3224,-1.1998 l 0.2615,-0.9831 12.2734,3.2727 -0.2616,0.9813 c -0.786,0.014 -1.3664,0.1377 -1.7445,0.3825 -0.3689,0.2504 -0.6404,0.6805 -0.8049,1.2961 l -9.4197,35.3355 c -0.1701,0.6376 -0.1529,1.1556 0.0441,1.5541 0.2064,0.4038 0.6477,0.8001 1.3206,1.2034 l -0.2615,0.9813 -13.1482,-3.5069 0.2615,-0.9813 c 0.9057,0.041 1.4491,-0.2828 1.6337,-0.9701 0.1078,-0.4098 -0.2037,-1.2526 -0.9308,-2.5413 z m -59.9477,3.63 15.4149,-33.1625 c 0.2693,-0.5791 0.3365,-1.0825 0.2129,-1.5103 -0.1345,-0.4315 -0.4898,-0.894 -1.0929,-1.4113 l 0.4268,-0.9208 12.2325,5.6847 -0.4269,0.9209 c -0.7662,-0.1423 -1.3577,-0.1323 -1.7818,0.067 -0.4094,0.1898 -0.7506,0.5648 -1.0199,1.1438 l -15.413,33.1644 c -0.2784,0.5973 -0.3513,1.11 -0.2112,1.5563 0.1218,0.4499 0.4824,0.903 1.0764,1.3947 l -0.4268,0.9208 -12.2323,-5.6847 0.4267,-0.9228 c 0.7865,0.1294 1.3687,0.1029 1.7856,-0.074 0.4057,-0.1805 0.7525,-0.5666 1.029,-1.1658 z m -26.907,-50.1383 -18.2789,27.1738 c -0.3685,0.546 -0.5185,1.0423 -0.463,1.4831 0.0631,0.4481 0.3503,0.9676 0.8581,1.5677 l -0.5666,0.842 -11.1931,-7.5285 0.5665,-0.844 c 0.7573,0.2507 1.3378,0.3161 1.7767,0.2053 0.4279,-0.1144 0.8316,-0.4419 1.1983,-0.9879 l 18.2789,-27.172 -11.1306,-7.4883 c -0.5295,-0.3557 -1.011,-0.5094 -1.4518,-0.4537 -0.4354,0.044 -0.9549,0.3336 -1.555,0.8395 l -0.8419,-0.5665 6.2323,-9.2663 0.8438,0.5684 c -0.2469,0.77 -0.316,1.3745 -0.2015,1.8042 0.107,0.4243 0.4161,0.8132 0.9456,1.169 l 30.0585,20.2188 c 0.5461,0.3685 1.0422,0.5204 1.4849,0.4666 0.439,-0.056 0.9658,-0.354 1.5769,-0.8783 l 0.8438,0.5665 -6.2341,9.2663 -0.8421,-0.5666 c 0.2434,-0.7478 0.3144,-1.3377 0.1944,-1.7563 -0.1163,-0.4297 -0.4492,-0.8243 -0.9971,-1.1928 z M 351.892,1004.11 l -9.0578,7.6202 17.8823,21.2591 c 0.4103,0.4862 0.8387,0.7613 1.2778,0.8305 0.4465,0.062 1.0249,-0.073 1.7427,-0.3953 l 0.6532,0.7781 -8.5532,7.1952 -0.6549,-0.7762 c 0.4492,-0.6583 0.6708,-1.1986 0.6868,-1.6486 0.009,-0.4464 -0.1885,-0.9146 -0.5989,-1.4027 l -25.2597,-30.0253 0.7762,-0.6549 c 0.6583,0.4474 1.1986,0.6708 1.6505,0.6868 0.4446,0.01 0.9202,-0.1959 1.4248,-0.6209 l 27.9607,-23.5211 c 0.5047,-0.425 0.787,-0.8589 0.8562,-1.298 0.0601,-0.4483 -0.0656,-1.0176 -0.3952,-1.7429 l 0.7781,-0.6549 24.7721,29.4489 c 0.4103,0.4864 0.8387,0.7632 1.287,0.8232 0.4556,0.055 1.034,-0.08 1.752,-0.4008 l 0.6531,0.7781 -8.5458,7.1879 -0.6532,-0.7762 c 0.4309,-0.6471 0.6451,-1.1802 0.6593,-1.6284 0.008,-0.4446 -0.1867,-0.9146 -0.5987,-1.4028 l -17.395,-20.6793 -7.843,6.5993 11.2832,13.4143 c 0.4103,0.4862 0.8387,0.7631 1.2778,0.8305 0.4465,0.06 1.0267,-0.073 1.7429,-0.3934 l 0.653,0.7761 -8.3642,7.0352 -0.6531,-0.7743 c 0.4308,-0.6473 0.6543,-1.1876 0.6703,-1.6377 0.0251,-0.4574 -0.172,-0.9274 -0.5822,-1.4155 z m -58.0123,-49.572 17.8489,-28.7292 -22.9476,13.2864 c -0.5709,0.3295 -0.9231,0.7085 -1.0659,1.1293 -0.1409,0.4282 -0.1089,1.0216 0.0831,1.7854 l -0.8793,0.5081 -6.3643,-10.9918 0.8793,-0.5082 c 0.5702,0.5559 1.0647,0.8676 1.5075,0.9626 0.4355,0.0839 0.9387,-0.0343 1.5096,-0.3638 l 31.6487,-18.3253 c 0.5525,-0.3204 0.8955,-0.6937 1.0402,-1.1146 0.1372,-0.43 0.1126,-1.0123 -0.0851,-1.7835 l 0.8775,-0.51 8.3452,14.4135 -0.8773,0.5082 c -0.7138,-0.7358 -1.467,-0.8743 -2.2528,-0.4197 -0.3635,0.2118 -0.7084,0.5869 -1.0402,1.1146 l -13.4107,21.3702 24.9585,-0.6744 c 1.1057,-0.0289 1.8441,-0.1566 2.2278,-0.3777 0.7471,-0.4325 0.9078,-1.1252 0.4713,-2.0947 l 0.8773,-0.5099 8.1833,14.1327 -0.8774,0.51 c -0.5665,-0.5468 -1.0647,-0.8695 -1.5057,-0.9643 -0.4374,-0.0841 -0.9332,0.0286 -1.4838,0.3472 l -31.6487,18.3252 c -0.5709,0.3314 -0.9232,0.7103 -1.0677,1.1292 -0.1391,0.432 -0.1072,1.0252 0.0849,1.7874 l -0.8794,0.5081 -6.76,-11.6748 0.8793,-0.5081 c 0.5425,0.5467 1.026,0.8658 1.4873,0.9497 0.4556,0.0967 0.9607,-0.0196 1.5316,-0.3491 l 22.9457,-13.2865 z m 109.9368,102.4937 -7.8321,8.8752 20.828,18.3826 c 0.4776,0.4204 0.942,0.6291 1.3865,0.6326 0.4507,-0 1.0029,-0.2236 1.6651,-0.6485 l 0.7611,0.673 -7.3958,8.3804 -0.7625,-0.671 c 0.347,-0.7174 0.4863,-1.2846 0.4356,-1.7319 -0.0575,-0.4429 -0.3217,-0.8769 -0.7996,-1.2989 l -29.42,-25.962 0.6709,-0.7626 c 0.7171,0.3451 1.2845,0.4863 1.7338,0.4354 0.441,-0.057 0.8811,-0.3298 1.3174,-0.8247 l 24.1773,-27.3954 c 0.4364,-0.4949 0.6514,-0.9656 0.655,-1.4102 -0.007,-0.4523 -0.2153,-0.9968 -0.6486,-1.6653 l 0.6728,-0.7628 28.8525,25.4642 c 0.4778,0.4204 0.9424,0.6308 1.3947,0.624 0.4586,-0.014 1.0107,-0.2323 1.6735,-0.6555 l 0.7608,0.6732 -7.3896,8.3719 -0.7607,-0.671 c 0.3306,-0.7038 0.4636,-1.2627 0.4114,-1.7081 -0.0573,-0.441 -0.3199,-0.8769 -0.7995,-1.2988 l -20.2603,-17.8812 -6.7815,7.6859 13.1419,11.5993 c 0.4776,0.4203 0.9422,0.6308 1.3865,0.6326 0.4504,-0.01 1.0047,-0.2239 1.6656,-0.6468 l 0.7606,0.6712 -7.2326,8.194 -0.7603,-0.6691 c 0.3304,-0.7039 0.4716,-1.2713 0.4208,-1.7189 -0.0427,-0.456 -0.3072,-0.8918 -0.785,-1.3138 z"
       style="fill:#ffffff;fill-rule:evenodd"
       id="path22" />
    <path
       d="m 1249.2823,897.7526 c -28.6167,81.8467 -75.2907,155.2255 -135.2592,215.345 C 1010.534,1216.8473 867.4613,1281.1182 709.3475,1281.3171 551.2337,1281.5159 407.9997,1217.605 304.25,1114.116 244.1305,1054.1475 197.2721,980.8863 168.4496,899.1119 l 15.7706,-0.0199 c 28.2038,77.6769 73.1618,147.3069 130.5132,204.5142 101.0588,100.8049 240.5781,163.058 394.5954,162.8643 154.0173,-0.1937 293.3796,-62.7975 394.1845,-163.8563 57.2073,-57.3514 101.9901,-127.0942 129.9984,-204.8418 z"
       style="fill:#f1c934;fill-rule:evenodd"
       id="path24" />
    <path
       d="m 147.8634,534.727 1121.0886,-1.4099 c 26.4876,-0.0333 50.5861,10.7747 68.0632,28.2078 17.4752,17.4314 28.34,41.475 28.3733,67.9167 l 0.1973,156.9051 c 0.033,26.4417 -10.7711,50.5126 -28.2024,67.9879 -17.4332,17.477 -41.5044,28.3456 -67.992,28.3789 L 148.3028,884.1234 C 121.8151,884.1567 97.7167,873.3487 80.2396,855.9156 62.7644,838.4842 51.8995,814.4406 51.8663,787.9989 L 51.6689,631.0938 c -0.0332,-26.4417 10.7711,-50.5126 28.2025,-67.9879 17.4331,-17.477 41.5043,-28.3456 67.992,-28.3789 z m 1121.1058,12.3124 -1121.0886,1.4099 c -22.6722,0.0285 -43.2753,9.3313 -58.1986,24.2922 -14.9251,14.9627 -24.1797,35.6167 -24.1511,58.3348 l 0.1973,156.9051 c 0.0286,22.7181 9.335,43.3488 24.2978,58.2739 14.9609,14.9234 35.5873,24.1743 58.2595,24.1457 l 1121.0886,-1.4099 c 22.6722,-0.0285 43.2753,-9.3312 58.1986,-24.2921 14.9252,-14.9628 24.1797,-35.6168 24.1512,-58.3349 l -0.1974,-156.905 c -0.028,-22.7182 -9.335,-43.3488 -24.2977,-58.274 -14.961,-14.9233 -35.5874,-24.1742 -58.2596,-24.1457 z"
       style="fill:#f1c934;fill-rule:evenodd"
       id="path26" />
    <path
       d="m 469.1672,776.3306 -33.753,0.0424 -0.0312,-24.7849 c -1.8523,2.3772 -3.8495,4.6418 -5.994,6.7872 -6.7412,6.7627 -14.6107,12.0694 -23.6062,15.9245 -8.9932,3.8575 -18.6487,5.7915 -28.964,5.8045 -10.313,0.013 -19.9733,-1.8968 -28.9785,-5.7316 -9.0052,-3.8325 -16.8857,-9.1194 -23.6485,-15.8651 -6.7604,-6.7389 -12.0625,-14.6084 -15.9222,-23.604 -3.8529,-8.9955 -5.7868,-18.5589 -5.7996,-28.6835 -0.0129,-10.3084 1.8968,-19.9733 5.727,-28.9784 1.4464,-3.3928 3.0999,-6.6318 4.9604,-9.7032 -5.6713,1.9244 -10.7801,5.1655 -15.3194,9.7162 -7.8658,8.2585 -11.7918,17.8293 -11.7782,28.7056 l 0.0888,70.6004 -33.753,0.0425 -0.029,-23.0906 c -1.4391,1.864 -2.9657,3.6568 -4.5866,5.3761 -6.3687,6.7577 -13.9072,12.0686 -22.6222,15.9188 -8.7128,3.8571 -18.2279,5.7909 -28.541,5.8039 -11.0671,0.0139 -21.0978,-2.1299 -30.1035,-6.4337 l 12.0522,-30.1106 c 4.5014,1.8703 9.5649,2.8019 15.195,2.7948 11.4372,-0.0144 20.9935,-3.9645 28.6736,-11.8503 7.8662,-7.8861 11.7924,-17.3581 11.7785,-28.4229 -0.0142,-11.2533 -3.9643,-20.8096 -11.8503,-28.6759 -7.8861,-7.8616 -17.457,-11.7923 -28.7034,-11.7781 -10.8762,0.0137 -20.4349,3.9684 -28.6759,11.8503 -7.8662,7.8861 -11.7923,17.4523 -11.7781,28.7056 l 0.0743,59.0667 0.0141,11.251 -33.753,0.0424 -0.2224,-176.8597 33.753,-0.0424 0.0593,47.1926 c 5.4316,-4.3196 11.7124,-7.8909 18.8287,-10.7138 7.1255,-2.8182 15.2803,-4.2377 24.4715,-4.2493 10.313,-0.013 19.8331,1.9016 28.5555,5.7321 8.7247,3.8329 16.2765,9.1202 22.6622,15.8664 1.6252,1.7107 3.1563,3.5043 4.6,5.3646 l -0.0297,-23.6561 33.753,-0.0424 0.0138,10.9659 c 5.2477,-4.3171 11.1974,-7.8857 17.847,-10.7079 6.6542,-2.8177 14.2022,-4.2365 22.6393,-4.2471 l 0.0246,19.6123 c 6.184,-5.6609 13.2383,-10.1918 21.1723,-13.5904 8.9955,-3.8575 18.6509,-5.7869 28.964,-5.7999 10.3153,-0.013 19.9756,1.8922 28.9785,5.727 9.0051,3.8325 16.888,9.1194 23.6461,15.8583 6.7605,6.7458 12.0672,14.6153 15.9246,23.6085 3.8552,8.9955 5.7892,18.6555 5.8022,28.964 0.0127,10.1245 -1.8972,19.6928 -5.7297,28.698 -1.1644,2.7303 -2.46,5.3596 -3.8868,7.881 l 27.7574,-0.0349 z M 376.6748,665.624 c -11.251,0.0142 -20.8073,3.9666 -28.6736,11.8504 -7.8662,7.886 -11.7923,17.4569 -11.7781,28.7033 0.0139,11.0625 3.9639,20.5292 11.8499,28.3954 3.7568,3.9334 8.1147,6.8774 13.0898,8.8437 4.9728,1.9639 10.1766,2.9413 15.6135,2.9345 5.4393,-0.007 10.5946,-0.9973 15.4636,-2.9736 4.8736,-1.9786 9.2792,-4.9337 13.2123,-8.8767 7.8663,-7.8861 11.7925,-17.3627 11.7786,-28.4252 -0.0142,-11.2464 -3.9643,-20.8073 -11.8504,-28.6736 -8.2608,-7.8635 -17.8293,-11.7918 -28.7056,-11.7782 z"
       style="fill:#ffffff;fill-rule:evenodd"
       id="path28" />
    <path
       d="m 564.9632,633.0365 c 10.3154,-0.0129 19.8354,1.897 28.5578,5.7299 8.7247,3.8328 16.2788,9.1201 22.6622,15.864 6.3835,6.7417 11.3637,14.6116 14.9361,23.6075 3.5769,8.9959 5.3708,18.6515 5.3837,28.9645 0.0128,10.1245 -1.7569,19.6927 -5.3112,28.6975 -3.5498,9.0048 -8.5102,16.8849 -14.8766,23.6449 -6.3665,6.7577 -13.9072,12.0663 -22.6223,15.9188 -8.7127,3.8571 -18.2279,5.7909 -28.5433,5.8039 -11.0625,0.0139 -21.0954,-2.1299 -30.1035,-6.4314 l 12.0569,-30.1106 c 4.5013,1.868 9.5671,2.7996 15.1949,2.7925 11.4349,-0.0144 20.9958,-3.9645 28.6713,-11.8503 7.8686,-7.8838 11.7924,-17.3581 11.7785,-28.4228 -0.0141,-11.2511 -3.9619,-20.8097 -11.8503,-28.6759 -7.8838,-7.864 -17.4523,-11.7924 -28.701,-11.7782 -10.8786,0.0137 -20.4349,3.9661 -28.6759,11.8503 -7.8686,7.8861 -11.7924,17.4546 -11.7782,28.7056 l 0.0743,59.0667 0.0141,11.251 -33.753,0.0424 -0.2238,-177.9792 33.753,-0.0425 0.0608,48.3122 c 5.4315,-4.3196 11.71,-7.8909 18.8309,-10.7114 7.1232,-2.8206 15.2758,-4.2378 24.4646,-4.2494 z m 434.6302,66.8033 0.004,3.3127 -5.6576,0.007 0.0201,16.0075 -3.3128,0.004 -0.0201,-16.0075 -5.6853,0.007 -0.004,-3.3128 5.6853,-0.007 3.3128,-0.004 z m 18.2167,-0.0505 3.6163,-0.005 0.024,19.3203 -3.3105,0.004 -0.017,-13.6902 -6.3649,9.8612 -6.362,-9.8452 0.017,13.6902 -3.3105,0.004 -0.024,-19.3203 3.6139,-0.005 6.058,9.3767 z m -186.9929,9.7435 0.0848,67.4624 -33.753,0.0425 -0.0848,-67.4624 -0.004,-3.1381 -0.006,-4.6162 -0.0826,-65.7014 33.753,-0.0425 0.0138,10.9683 c 5.2477,-4.3194 11.1951,-7.888 17.847,-10.7102 6.6542,-2.82 14.1999,-4.2365 22.6393,-4.2471 l 0.0424,33.7553 c -11.251,0.0142 -20.8096,3.962 -28.6736,11.8458 -7.8681,8.2608 -11.7941,17.8293 -11.7804,28.7056 z m -53.0872,-73.1085 0.1769,140.6376 -33.753,0.0424 -0.0135,-10.6878 c -5.0568,4.3192 -10.7721,7.8415 -17.1437,10.5691 -6.3738,2.7254 -13.4965,4.0953 -21.3727,4.1053 -9.1888,0.0115 -17.5339,-1.7137 -25.0397,-5.1734 -7.5035,-3.4573 -13.9327,-8.1851 -19.2853,-14.1786 -5.3502,-5.9935 -9.4857,-13.0208 -12.4017,-21.0795 -2.9183,-8.061 -4.3797,-16.6848 -4.3913,-25.8737 l -0.0983,-78.1938 33.7507,-0.0424 0.0983,78.1938 c 0.0111,8.8141 3.3037,16.4977 9.8754,23.0529 6.383,6.3669 14.0746,9.5459 23.075,9.5346 9.1888,-0.0116 16.9667,-3.21 23.3337,-9.593 6.3692,-6.383 9.5459,-14.0769 9.5345,-23.0773 l -0.0983,-78.1938 z m 244.541,126.2653 c 0.013,10.1268 -1.8994,19.6905 -5.7296,28.698 -3.8348,9.0052 -9.124,16.888 -15.8652,23.6485 -6.7389,6.7582 -14.6106,12.1108 -23.606,16.0602 -8.9954,3.9517 -18.6485,5.9318 -28.9638,5.9447 -8.4394,0.0106 -16.4092,-1.292 -23.9139,-3.9103 -7.5025,-2.6136 -14.4454,-6.3568 -20.8265,-11.2225 l 24.4418,-24.2202 c 6.0027,3.742 12.757,5.6094 20.2561,5.6 11.4396,-0.0144 20.9981,-4.0587 28.6733,-12.1331 7.8685,-7.8838 11.7947,-17.358 11.7808,-28.4228 l -0.0437,-34.7278 33.7531,-0.0425 z m -36.7445,-71.69 c -1.9739,-4.8276 -4.9521,-9.3206 -8.9322,-13.4789 -7.8838,-7.864 -17.4523,-11.7878 -28.7033,-11.7736 -10.8763,0.0137 -20.4327,3.9615 -28.6759,11.8457 -7.8635,8.2608 -11.7896,17.8293 -11.7759,28.7056 0.0141,11.251 3.9643,20.812 11.848,28.6759 8.2631,7.8635 17.8294,11.7919 28.7056,11.7782 5.6255,-0.007 10.6889,-0.9514 15.1856,-2.833 l 12.6976,31.4887 c -8.4329,3.3832 -17.5254,5.082 -27.2775,5.0943 l -0.5632,7e-4 c -10.1245,0.0128 -19.6928,-1.8948 -28.698,-5.7296 -9.0029,-3.8325 -16.8857,-9.1194 -23.6462,-15.8629 -6.7582,-6.7412 -12.1108,-14.6083 -16.0625,-23.606 -3.9494,-8.9954 -5.9295,-18.6508 -5.9424,-28.9638 -0.013,-10.3131 1.6623,-19.973 5.0258,-28.9776 3.3635,-9.0046 8.0894,-16.8867 14.1754,-23.6441 6.086,-6.7596 13.3923,-12.0656 21.9188,-15.9201 8.5265,-3.8523 17.8532,-5.7882 27.98,-5.801 9.7499,-0.0122 18.3773,1.4321 25.8824,4.3263 7.5028,2.8987 14.0708,6.4998 19.704,10.8055 l -0.0138,-10.9705 33.753,-0.0425 0.069,54.8366 z m 155.7915,32.1617 -73.697,0.0927 c 1.8813,4.3104 4.6058,8.1531 8.1711,11.5235 3.9453,3.9331 8.3561,6.8794 13.2323,8.8435 4.8786,1.9641 10.0363,2.9415 15.4733,2.9347 7.69,-0.01 14.5317,-1.8 20.5274,-5.3709 l 35.1754,14.0207 c -6.7398,7.8824 -14.8887,14.0354 -24.4468,18.4522 -9.5557,4.4191 -19.9625,6.6346 -31.2135,6.6487 -10.3131,0.013 -19.9733,-1.8945 -28.9762,-5.7293 -9.0052,-3.8325 -16.8903,-9.1194 -23.6485,-15.8629 -6.7605,-6.7412 -12.0671,-14.6084 -15.9223,-23.6062 -3.8551,-8.9955 -5.7891,-18.5566 -5.8018,-28.6812 -0.013,-10.313 1.8968,-19.9733 5.7293,-28.9808 3.8325,-9.0051 9.1194,-16.8857 15.8629,-23.6461 6.7411,-6.7582 14.6129,-12.0649 23.6085,-15.92 8.9932,-3.8575 18.6486,-5.7892 28.9616,-5.8022 10.3154,-0.013 19.9733,1.8945 28.9785,5.7293 9.0052,3.8325 16.8903,9.1194 23.6462,15.8606 6.7605,6.7435 12.0671,14.6107 15.9246,23.6062 3.8551,8.9978 5.7892,18.6532 5.8022,28.9663 0.01,5.9979 -0.6429,11.6265 -1.949,16.8766 z m -36.9218,-57.3329 c -10.8763,0.0137 -20.4326,3.9661 -28.6759,11.8504 -3.5566,3.5655 -6.2713,7.5093 -8.1418,11.8245 l 73.6971,-0.0927 c -1.8837,-4.3105 -4.606,-8.2474 -8.1738,-11.804 -7.8861,-7.864 -17.4546,-11.7923 -28.7056,-11.7782 z m 118.792,-19.2766 c 5.2454,-4.3194 11.1928,-7.8879 17.847,-10.7102 6.6542,-2.82 14.1999,-4.2364 22.6393,-4.247 l 0.042,33.7553 c -11.251,0.0141 -20.8096,3.962 -28.6759,11.8457 -7.8658,8.2608 -11.7918,17.8294 -11.7782,28.7056 l 0.089,70.6005 -33.753,0.0424 -0.089,-70.6004 -0.088,-70.3177 33.753,-0.0424 z"
       style="fill:#ffffff;fill-rule:evenodd"
       id="path30" />
    <path
       d="m 1264.0924,742.741 33.753,-0.0424 0.042,33.7093 -33.753,0.0425 z"
       style="fill:#f4d431;fill-rule:evenodd"
       id="path32" />
    <path
       d="m 333.7493,445.7148 c 4.4488,-3.2736 8.8959,-3.4758 13.3266,-0.6065 3.5244,2.2827 5.4663,5.3351 5.8275,9.1575 0.1788,1.9268 -0.0704,3.8761 -0.7201,5.8536 -0.6515,1.9774 -1.7784,4.2053 -3.3919,6.6946 l -17.0931,26.3971 -0.9082,-0.5885 c 0.2506,-0.8105 0.3105,-1.4296 0.185,-1.8924 -0.131,-0.4572 -0.4879,-0.8793 -1.0744,-1.2607 L 297.238,468.3172 c -0.5883,-0.3814 -1.1194,-0.535 -1.5878,-0.4665 -0.4738,0.076 -1.0153,0.3834 -1.6539,0.9445 l -0.9064,-0.5885 16.9263,-26.1342 c 1.6244,-2.5096 3.1247,-4.4017 4.488,-5.6838 1.3724,-1.2913 2.8721,-2.2099 4.5229,-2.7723 3.2684,-1.1301 6.594,-0.5942 9.9714,1.593 3.7652,2.4385 5.3568,5.9489 4.7508,10.5054 z m -18.6654,22.1978 9.5797,-14.7925 c 1.4558,-2.2485 2.1406,-4.0257 2.0489,-5.3446 -0.1084,-1.4823 -0.9513,-2.7396 -2.5361,-3.7644 -1.6216,-1.0506 -3.0842,-1.3298 -4.3786,-0.8359 -1.2963,0.5013 -2.676,1.8679 -4.1336,4.1183 l -9.5779,14.7906 z m 16.8848,10.9347 9.268,-14.309 c 1.7253,-2.664 2.5951,-4.8126 2.6188,-6.4567 0.0178,-1.8903 -0.9394,-3.4597 -2.8606,-4.7028 -1.901,-1.2321 -3.7255,-1.4649 -5.4623,-0.6857 -1.4779,0.6742 -3.0832,2.3479 -4.8195,5.0303 l -9.268,14.309 z m 33.483,-67.1348 9.526,8.2582 19.3816,-22.3513 c 0.4439,-0.5131 0.6619,-1.0093 0.6595,-1.4814 -0.01,-0.4813 -0.2475,-1.067 -0.704,-1.7682 l 0.7081,-0.8165 8.9927,7.7978 -0.7062,0.8165 c -0.7683,-0.3591 -1.3747,-0.5053 -1.8504,-0.4459 -0.4684,0.0649 -0.9291,0.3502 -1.373,0.8633 l -27.3757,31.572 -0.8183,-0.7099 c 0.3627,-0.7665 0.5071,-1.371 0.4477,-1.8468 -0.0649,-0.472 -0.3612,-0.9382 -0.889,-1.3968 l -29.4001,-25.4936 c -0.5297,-0.4586 -1.0351,-0.6839 -1.5091,-0.6815 -0.4794,0.008 -1.0578,0.2365 -1.7681,0.704 l -0.8147,-0.7081 26.8474,-30.9633 c 0.4439,-0.5131 0.66,-1.0093 0.6502,-1.4888 -0.0171,-0.4904 -0.2548,-1.0743 -0.7131,-1.7773 l 0.7099,-0.8165 8.9853,7.7904 -0.7099,0.8184 c -0.7499,-0.3463 -1.3453,-0.4851 -1.8228,-0.4239 -0.4684,0.0649 -0.9291,0.3502 -1.373,0.8633 l -18.8533,21.7425 8.2461,7.1503 12.2295,-14.1034 c 0.4458,-0.513 0.6619,-1.0111 0.6613,-1.4832 -0.01,-0.4795 -0.2475,-1.0652 -0.704,-1.7682 l 0.7081,-0.8165 8.7941,7.6253 -0.708,0.8166 c -0.7518,-0.3445 -1.3564,-0.4888 -1.8321,-0.4313 -0.4867,0.0502 -0.9474,0.3355 -1.3932,0.8505 z m 51.3004,-50.8355 7.7756,9.9247 23.2904,-18.2431 c 0.5322,-0.4177 0.8402,-0.8644 0.9297,-1.3293 0.082,-0.4722 -0.04,-1.093 -0.3532,-1.8696 l 0.8496,-0.6661 7.3415,9.3705 -0.8516,0.666 c -0.684,-0.4988 -1.2501,-0.7571 -1.7296,-0.7895 -0.4721,-0.0251 -0.9789,0.1665 -1.5129,0.5842 l -32.8977,25.7685 -0.666,-0.8515 c 0.5006,-0.684 0.7589,-1.2501 0.7914,-1.7296 0.0251,-0.474 -0.1758,-0.9881 -0.6063,-1.5405 l -23.9967,-30.633 c -0.4324,-0.5524 -0.8847,-0.8696 -1.3495,-0.959 -0.4741,-0.0821 -1.0838,0.0326 -1.8696,0.355 l -0.6661,-0.8515 32.2608,-25.2699 c 0.5359,-0.4195 0.8421,-0.8663 0.9242,-1.3385 0.0765,-0.4832 -0.0455,-1.104 -0.3606,-1.8806 l 0.8515,-0.6661 7.3341,9.3613 -0.8534,0.6679 c -0.6693,-0.4823 -1.228,-0.7314 -1.7075,-0.7639 -0.4722,-0.0251 -0.979,0.1666 -1.513,0.5861 l -22.6554,17.7463 6.7305,8.5924 14.6962,-11.5107 c 0.5341,-0.4196 0.8421,-0.8663 0.9316,-1.3312 0.082,-0.4722 -0.04,-1.093 -0.3533,-1.8696 l 0.8497,-0.6661 7.1777,9.1631 -0.8497,0.6661 c -0.673,-0.4823 -1.2372,-0.7388 -1.7167,-0.7712 -0.4869,-0.0435 -0.9937,0.1482 -1.5295,0.5677 z m 58.9486,-39.9406 7.6475,13.2075 c 0.3406,0.5893 0.7397,0.9544 1.2138,1.1062 0.4668,0.1666 1.084,0.1309 1.8736,-0.0887 l 0.5413,0.9362 -12.4311,7.1983 -0.5413,-0.9362 c 0.5908,-0.6088 0.9244,-1.1327 1.0249,-1.6013 0.0894,-0.4667 -0.0307,-0.9938 -0.3712,-1.583 l -19.5146,-33.7028 c -0.3516,-0.6076 -0.7562,-0.9855 -1.2047,-1.1374 -0.4557,-0.1464 -1.0766,-0.1199 -1.8993,0.0906 l -0.5413,-0.9344 24.9045,-14.4205 c 3.0361,-1.7581 5.5476,-2.9737 7.5215,-3.6504 1.9831,-0.684 3.8877,-0.9766 5.7194,-0.8669 2.12,0.1278 4.0608,0.8381 5.8241,2.1163 1.6842,1.258 3.0805,2.8416 4.1814,4.7433 3.763,6.4983 2.3615,12.3876 -4.2157,17.6718 l 14.098,6.5109 c 2.4722,1.1469 4.1906,1.7987 5.1406,1.9922 0.9536,0.1807 1.9013,0.0435 2.8504,-0.4279 l 0.5413,0.938 -14.4044,8.3397 -0.5413,-0.9362 c 0.9047,-0.7359 1.1997,-1.3719 0.8885,-1.9097 -0.2061,-0.358 -1.1548,-0.941 -2.8421,-1.7434 l -14.8519,-7.0556 z m -3.798,-6.5607 13.4187,-7.769 c 1.9807,-1.1469 3.3481,-2.0176 4.0969,-2.61 0.7506,-0.5814 1.3541,-1.2637 1.8179,-2.023 1.023,-1.6564 0.9288,-3.5153 -0.2826,-5.6062 -1.204,-2.0816 -2.7704,-3.0881 -4.7139,-3.0251 -0.9221,0.0159 -1.8128,0.1989 -2.6629,0.5434 -0.8483,0.3465 -2.282,1.1088 -4.3012,2.2797 l -13.4187,7.769 z m 110.7996,-32.7185 -19.8791,6.4876 -0.9316,7.1158 c -0.1384,0.9885 -0.1173,1.7196 0.0432,2.2117 0.3061,0.9402 1.2325,1.3652 2.7919,1.2549 l 0.3357,1.0283 -14.477,4.7245 -0.3356,-1.0301 c 0.7967,-0.4529 1.3563,-0.9624 1.6642,-1.5341 0.3097,-0.5717 0.5528,-1.5714 0.7145,-3.0044 l 5.1223,-38.8388 c 0.1674,-1.2401 0.1387,-2.1751 -0.0715,-2.8197 -0.3209,-0.9842 -1.161,-1.4828 -2.548,-1.5049 l -0.3356,-1.0265 15.5071,-5.0602 0.3338,1.0264 c -1.138,0.773 -1.5668,1.6131 -1.2736,2.511 0.1992,0.6115 0.6372,1.2557 1.2993,1.9107 l 27.6622,28.2641 c 1.168,1.2036 2.1077,1.9721 2.8153,2.3221 0.7077,0.35 1.529,0.4573 2.4823,0.3386 l 0.3356,1.0283 -16.0745,5.2465 -0.3356,-1.0302 c 1.3364,-0.6887 1.8184,-1.5839 1.4607,-2.6765 -0.1457,-0.4499 -0.5689,-1.0372 -1.29,-1.7692 z m -4.7017,-5.0954 -12.1795,-13.2662 -2.1212,17.9318 z m 52.5744,-26.6622 3.4425,27.7509 c 0.0872,0.6943 0.312,1.1991 0.6651,1.5165 0.3622,0.3137 0.9577,0.5297 1.7845,0.6572 l 0.1318,1.0745 -13.4227,1.6647 -0.1336,-1.0727 c 0.784,-0.3298 1.2961,-0.6813 1.5711,-1.0747 0.2659,-0.3935 0.3589,-0.9392 0.2717,-1.6335 l -4.7936,-38.6499 c -0.0835,-0.6741 -0.3064,-1.1679 -0.6595,-1.4835 -0.3641,-0.3136 -0.9467,-0.5315 -1.7864,-0.659 l -0.1318,-1.0727 15.5221,-1.9263 0.1336,1.0726 c -0.9272,0.3594 -1.3435,0.9331 -1.2452,1.721 0.0668,0.5345 0.4459,1.0778 1.1539,1.6519 l 28.429,23.0608 -3.3609,-27.086 c -0.0835,-0.674 -0.3064,-1.1679 -0.6577,-1.4834 -0.3641,-0.3137 -0.9467,-0.5316 -1.7863,-0.6591 l -0.1337,-1.0726 13.4246,-1.6666 0.1336,1.0727 c -0.7711,0.3298 -1.2942,0.6831 -1.5711,1.0766 -0.2641,0.3916 -0.3589,0.9245 -0.2754,1.6004 l 4.7954,38.6499 c 0.0854,0.6943 0.3083,1.1992 0.6614,1.5165 0.3641,0.3137 0.9577,0.5297 1.7864,0.6573 l 0.1336,1.0744 -14.3833,1.7835 -0.1336,-1.0727 c 0.9107,-0.3207 1.3197,-0.8577 1.2269,-1.6107 -0.0557,-0.4463 -0.6995,-1.1546 -1.9352,-2.1377 z m 71.0332,22.0465 0.6307,-38.9084 c 0.0102,-0.7018 -0.1393,-1.2325 -0.4465,-1.594 -0.3164,-0.3615 -0.8624,-0.6565 -1.6765,-0.9017 l 0.0188,-1.0801 25.6359,0.416 c 5.6213,0.0902 9.9244,0.8049 12.9057,2.1312 4.2827,1.9308 7.4187,5.0644 9.4191,9.388 1.5896,3.3965 2.3422,7.3414 2.2689,11.8624 -0.1278,7.9231 -2.6626,13.9351 -7.6064,18.0066 -2.0663,1.7275 -4.4786,2.9301 -7.2387,3.6445 -2.7491,0.7015 -6.2518,1.0256 -10.4936,0.9574 l -25.6358,-0.416 0.017,-1.082 c 0.8209,-0.2159 1.3772,-0.494 1.7037,-0.8435 0.3174,-0.3531 0.4857,-0.8805 0.4977,-1.5804 z m 10.1059,-3.8741 12.5948,0.2046 c 4.0231,0.0648 7.0443,-0.4405 9.0875,-1.5104 4.3747,-2.2871 6.6101,-6.8419 6.7209,-13.672 0.0802,-4.9453 -1.0323,-8.7484 -3.3246,-11.4091 -1.2749,-1.4809 -2.823,-2.5536 -4.6516,-3.1924 -1.8433,-0.6516 -4.276,-1.0013 -7.3328,-1.0507 l -12.5947,-0.2046 z m 80.9433,11.3703 8.7056,-37.9266 c 0.1571,-0.6836 0.1197,-1.2346 -0.105,-1.6532 -0.2338,-0.4185 -0.7064,-0.8202 -1.4509,-1.2289 l 0.2411,-1.0529 24.9886,5.7349 c 5.4813,1.2588 9.5394,2.8519 12.1816,4.7682 3.7877,2.7801 6.2025,6.497 7.261,11.1414 0.8478,3.6528 0.7646,7.6704 -0.2457,12.0768 -1.774,7.7231 -5.5037,13.0753 -11.1855,16.0308 -2.3792,1.2595 -4.9887,1.9351 -7.8377,2.06 -2.8362,0.1156 -6.3289,-0.297 -10.4633,-1.2452 l -24.9904,-5.7368 0.243,-1.0547 c 0.8468,-0.0415 1.4492,-0.1966 1.8419,-0.4726 0.3854,-0.2779 0.6586,-0.7595 0.8157,-1.4412 z m 10.6892,-1.6888 12.2765,2.819 c 3.9231,0.8989 6.9837,1.0347 9.2039,0.411 4.7543,-1.3268 7.8887,-5.317 9.4179,-11.9744 1.1053,-4.8198 0.8083,-8.7708 -0.8801,-11.8512 -0.939,-1.7127 -2.2303,-3.0834 -3.8867,-4.0898 -1.6675,-1.0193 -3.974,-1.8687 -6.9545,-2.552 l -12.2783,-2.8191 z m 76.7838,12.4354 -6.1897,13.9506 c -0.2766,0.6213 -0.3384,1.1578 -0.1817,1.6315 0.1402,0.4756 0.5321,0.9527 1.1739,1.4626 l -0.4397,0.9889 -13.1308,-5.8252 0.4396,-0.9888 c 0.8397,0.122 1.4606,0.0826 1.8975,-0.1126 0.4315,-0.2008 0.7873,-0.6072 1.0621,-1.2285 l 15.7957,-35.5988 c 0.2857,-0.6415 0.3548,-1.1908 0.2128,-1.6426 -0.1493,-0.4572 -0.5357,-0.9417 -1.1904,-1.4846 l 0.4378,-0.987 26.3058,11.6704 c 3.2074,1.4233 5.6669,2.7429 7.375,3.9403 1.7191,1.2029 3.0747,2.5716 4.0631,4.1171 1.1412,1.7915 1.7077,3.7784 1.7104,5.9571 -0.0268,2.1015 -0.4889,4.1614 -1.381,6.1703 -3.0445,6.8651 -8.6315,9.1922 -16.7741,6.9778 l 3.019,15.2323 c 0.5269,2.6722 1.0086,4.448 1.4102,5.3292 0.4163,0.8776 1.0821,1.5638 2.0214,2.0549 l -0.4396,0.9889 -15.2133,-6.7502 0.4378,-0.9889 c 1.1283,0.298 1.817,0.1649 2.0679,-0.4031 0.1686,-0.3786 0.0827,-1.488 -0.2595,-3.3264 l -3.022,-16.1618 z m 3.0737,-6.9293 14.1749,6.2886 c 2.0916,0.9287 3.6006,1.5238 4.5194,1.7798 0.9133,0.2671 1.8191,0.3541 2.7062,0.2832 1.9397,-0.1457 3.3895,-1.3159 4.3695,-3.5233 0.9745,-2.1983 0.8693,-4.0554 -0.3248,-5.5933 -0.5557,-0.7359 -1.2252,-1.3486 -2.0047,-1.8345 -0.7795,-0.484 -2.2389,-1.193 -4.3729,-2.1401 l -14.173,-6.2886 z m 45.9068,48.3802 18.8378,-34.0871 c 0.3281,-0.5938 0.4395,-1.1248 0.3379,-1.5876 -0.109,-0.4683 -0.4513,-0.9859 -1.0565,-1.584 l 0.5242,-0.9449 12.572,6.9482 -0.5224,0.9468 c -0.8048,-0.2085 -1.4313,-0.2407 -1.8977,-0.062 -0.448,0.1714 -0.8406,0.5467 -1.1687,1.1405 l -18.8396,34.0871 c -0.3391,0.6121 -0.4523,1.1542 -0.3378,1.639 0.098,0.4867 0.4458,0.9951 1.0399,1.5602 l -0.5224,0.9467 -12.5738,-6.9483 0.5242,-0.9467 c 0.8269,0.1937 1.4478,0.2094 1.9014,0.0527 0.4461,-0.1622 0.8424,-0.5485 1.1815,-1.1606 z m 57.2553,4.1549 -16.8006,22.3535 c -0.4218,0.559 -0.6104,1.0791 -0.5767,1.5512 0.0428,0.4776 0.3209,1.0467 0.8269,1.7129 l -0.651,0.866 -10.8118,-8.128 0.6511,-0.8642 c 0.7903,0.3077 1.4039,0.4098 1.8741,0.3173 0.4646,-0.0979 0.9106,-0.4255 1.3306,-0.9845 l 23.3991,-31.1334 c 0.4089,-0.5425 0.592,-1.0534 0.5565,-1.5254 -0.0428,-0.4776 -0.3099,-1.0394 -0.8251,-1.7148 l 0.6492,-0.8642 12.5034,9.3989 -0.6492,0.8642 c -0.9153,-0.3864 -1.6132,-0.2625 -2.0901,0.3719 -0.3246,0.4321 -0.4284,1.0862 -0.3171,1.9899 l 4.4288,36.3376 16.399,-21.8185 c 0.409,-0.5424 0.592,-1.0533 0.5583,-1.5254 -0.045,-0.4776 -0.3135,-1.0393 -0.8269,-1.7147 l 0.6474,-0.8642 10.8154,8.128 -0.6492,0.8642 c -0.7848,-0.3003 -1.4058,-0.4079 -1.8778,-0.3173 -0.4628,0.0979 -0.9015,0.4163 -1.3104,0.9587 l -23.3991,31.1335 c -0.42,0.559 -0.6104,1.0791 -0.5767,1.5511 0.0428,0.4794 0.3209,1.0467 0.8269,1.7148 l -0.6492,0.8642 -11.5859,-8.7075 0.6493,-0.8661 c 0.8785,0.4031 1.5452,0.3012 2.0019,-0.3056 0.2696,-0.3604 0.2978,-1.3157 0.0919,-2.8805 z m 59.1518,67.5529 -8.7718,-1.556 -9.2961,8.1019 c -0.5284,0.4599 -0.8199,0.9287 -0.8781,1.4229 -0.075,0.4924 0.079,1.0893 0.445,1.8236 l -0.8165,0.7101 -9.4375,-10.8301 0.8148,-0.7101 c 0.7115,0.4657 1.2886,0.6928 1.768,0.6995 0.4758,0.001 0.9789,-0.2272 1.5074,-0.6852 l 29.3616,-25.5896 c 0.5119,-0.4452 0.7979,-0.9067 0.8598,-1.377 0.058,-0.4759 -0.088,-1.08 -0.4506,-1.8475 l 0.8148,-0.7101 9.4374,10.8301 -0.8129,0.7101 c -0.6858,-0.4712 -1.2648,-0.7148 -1.7626,-0.7068 -0.4813,0.006 -0.977,0.2253 -1.4889,0.6723 l -12.1403,10.5799 24.0937,4.1158 c 1.119,0.1823 1.8409,0.1336 2.162,-0.146 0.4863,-0.4231 0.4008,-1.2203 -0.2693,-2.3584 l 0.8147,-0.7101 12.3551,14.1771 -0.8147,0.7101 c -0.6362,-0.4841 -1.1345,-0.794 -1.5112,-0.9092 -0.3731,-0.1318 -1.5968,-0.3617 -3.6528,-0.7082 l -3.3294,-0.5469 -19.7466,-3.5389 -4.4313,27.3878 c -0.412,2.5393 -0.5954,4.2718 -0.5519,5.1976 0.049,0.9313 0.3587,1.8659 0.9551,2.8112 l -0.8148,0.7101 -11.8032,-13.544 0.8147,-0.7101 c 0.9672,0.7428 1.6912,0.9072 2.1426,0.5135 0.2423,-0.2116 0.5111,-1.1635 0.8139,-2.8612 z m 75.7075,66.6741 -12.0637,1.3066 -0.064,-1.0856 c 0.2075,-0.1049 0.358,-0.1915 0.4736,-0.2669 0.637,-0.4123 0.9719,-1.4139 0.9956,-2.9809 0.1482,-4.8719 -1.2465,-9.5637 -4.1895,-14.0845 -1.2994,-1.9952 -2.6829,-3.5935 -4.1724,-4.8059 -1.0996,-0.8638 -2.2502,-1.3896 -3.4463,-1.5828 -1.1998,-0.195 -2.243,-0.008 -3.1296,0.5679 -1.4463,0.9424 -1.8596,2.4584 -1.2526,4.5481 0.3302,1.0761 1.3028,3.2021 2.9417,6.3744 l 2.4345,4.7291 c 1.4345,2.8124 2.435,5.1956 3.0051,7.1439 0.5701,1.9484 0.826,3.8402 0.7548,5.6699 -0.08,1.8793 -0.6365,3.6821 -1.6649,5.4102 -1.0192,1.7207 -2.386,3.1443 -4.0911,4.256 -2.7184,1.7687 -5.699,2.4614 -8.9362,2.0852 -2.958,-0.3251 -5.9763,-1.8607 -9.0714,-4.5921 -2.3135,-2.0344 -4.3924,-4.4713 -6.244,-7.3145 -3.3203,-5.0971 -5.3722,-10.9252 -6.1649,-17.4933 -0.1909,-1.372 -0.3591,-2.1543 -0.4971,-2.3654 -0.1565,-0.2423 -0.6087,-0.4952 -1.3714,-0.757 l -0.1079,-1.0947 12.1731,-1.9845 0.1392,1.0763 c -0.1652,0.1067 -0.29,0.1877 -0.3671,0.2392 -0.848,0.5522 -1.3668,1.4658 -1.5525,2.7391 -0.2897,1.9329 -0.01,4.4382 0.8747,7.5159 0.8709,3.0685 2.0573,5.7564 3.5518,8.0508 1.6326,2.5054 3.4499,4.3677 5.4464,5.5794 1.114,0.6765 2.2369,1.0553 3.4053,1.12 1.1648,0.0794 2.162,-0.1589 3.01,-0.711 1.283,-0.8356 1.7425,-2.1093 1.3949,-3.8448 -0.2476,-1.1992 -1.1615,-3.3639 -2.7452,-6.4903 l -2.3774,-4.6428 c -1.6022,-3.1154 -2.6557,-5.3662 -3.1718,-6.747 -0.5033,-1.3863 -0.856,-2.8738 -1.0326,-4.4736 -0.2728,-2.2537 0.1212,-4.4292 1.1822,-6.5081 0.9456,-1.8786 2.4113,-3.464 4.3863,-4.7505 3.2599,-2.1222 6.6759,-2.7566 10.2683,-1.8959 4.7133,1.1037 8.9795,4.5978 12.8079,10.4787 1.5994,2.4559 2.8517,4.9232 3.7292,7.369 0.8977,2.4513 1.699,5.7036 2.4444,9.7606 0.2773,1.3719 0.4877,2.1817 0.6515,2.4332 0.2559,0.3928 0.7743,0.7026 1.5535,0.9496 z"
       style="fill:#ffffff;fill-rule:evenodd"
       id="path34" />
  </g>
</svg>
